<svg width="662" height="339" viewBox="0 0 662 339" fill="none" xmlns="http://www.w3.org/2000/svg">
<rect width="662" height="339" rx="2" fill="#535353"/>
<rect x="0.5" y="0.5" width="661" height="338" rx="1.5" stroke="white" stroke-opacity="0.1"/>
<rect x="432" y="28" width="202" height="283" rx="10" fill="#2A2A2A"/>
<rect x="457" y="74" width="152" height="214" fill="white"/>
<rect x="533" y="86" width="58" height="36" rx="2" fill="#FFDA7E"/>
<line x1="541.8" y1="94.2" x2="582.2" y2="94.2" stroke="#545454" stroke-width="1.6" stroke-linecap="round"/>
<line x1="541.8" y1="100.2" x2="582.2" y2="100.2" stroke="#545454" stroke-width="1.6" stroke-linecap="round"/>
<line x1="541.8" y1="107.2" x2="582.2" y2="107.2" stroke="#545454" stroke-width="1.6" stroke-linecap="round"/>
<rect x="467" y="86" width="58" height="36" rx="2" fill="#FCB500"/>
<line x1="494.8" y1="95.2" x2="516.2" y2="95.2" stroke="#585858" stroke-width="1.6" stroke-linecap="round"/>
<line x1="494.8" y1="101.2" x2="516.2" y2="101.2" stroke="#585858" stroke-width="1.6" stroke-linecap="round"/>
<line x1="494.8" y1="108.2" x2="516.2" y2="108.2" stroke="#585858" stroke-width="1.6" stroke-linecap="round"/>
<mask id="mask0_4_2" style="mask-type:alpha" maskUnits="userSpaceOnUse" x="472" y="92" width="16" height="19">
<rect x="472" y="92" width="16" height="19" fill="#B77A7A"/>
</mask>
<g mask="url(#mask0_4_2)">
<rect x="472" y="92" width="16" height="19" fill="white"/>
<path d="M480 98L486.928 113.75H473.072L480 98Z" fill="#969696"/>
<circle cx="480" cy="100" r="5" fill="#969696"/>
</g>
<path d="M460.148 67V55.3636H462.205V59.7159H462.29C462.396 59.5038 462.545 59.2784 462.739 59.0398C462.932 58.7973 463.193 58.5909 463.523 58.4205C463.852 58.2462 464.273 58.1591 464.784 58.1591C465.458 58.1591 466.066 58.3314 466.608 58.6761C467.153 59.017 467.585 59.5227 467.903 60.1932C468.225 60.8598 468.386 61.678 468.386 62.6477C468.386 63.6061 468.229 64.4205 467.915 65.0909C467.6 65.7614 467.172 66.2727 466.631 66.625C466.089 66.9773 465.475 67.1534 464.79 67.1534C464.29 67.1534 463.875 67.0701 463.545 66.9034C463.216 66.7367 462.951 66.536 462.75 66.3011C462.553 66.0625 462.4 65.8371 462.29 65.625H462.17V67H460.148ZM462.165 62.6364C462.165 63.2008 462.244 63.6951 462.403 64.1193C462.566 64.5436 462.799 64.875 463.102 65.1136C463.409 65.3485 463.78 65.4659 464.216 65.4659C464.67 65.4659 465.051 65.3447 465.358 65.1023C465.665 64.8561 465.896 64.5208 466.051 64.0966C466.21 63.6686 466.29 63.1818 466.29 62.6364C466.29 62.0947 466.212 61.6136 466.057 61.1932C465.902 60.7727 465.67 60.4432 465.364 60.2045C465.057 59.9659 464.674 59.8466 464.216 59.8466C463.777 59.8466 463.403 59.9621 463.097 60.1932C462.79 60.4242 462.557 60.7481 462.398 61.1648C462.242 61.5814 462.165 62.072 462.165 62.6364ZM473.942 67.1705C473.089 67.1705 472.351 66.983 471.726 66.608C471.101 66.233 470.616 65.7083 470.271 65.0341C469.93 64.3598 469.76 63.572 469.76 62.6705C469.76 61.7689 469.93 60.9792 470.271 60.3011C470.616 59.6231 471.101 59.0966 471.726 58.7216C472.351 58.3466 473.089 58.1591 473.942 58.1591C474.794 58.1591 475.533 58.3466 476.158 58.7216C476.783 59.0966 477.266 59.6231 477.607 60.3011C477.951 60.9792 478.124 61.7689 478.124 62.6705C478.124 63.572 477.951 64.3598 477.607 65.0341C477.266 65.7083 476.783 66.233 476.158 66.608C475.533 66.983 474.794 67.1705 473.942 67.1705ZM473.953 65.5227C474.415 65.5227 474.802 65.3958 475.112 65.142C475.423 64.8845 475.654 64.5398 475.805 64.108C475.961 63.6761 476.038 63.1951 476.038 62.6648C476.038 62.1307 475.961 61.6477 475.805 61.2159C475.654 60.7803 475.423 60.4337 475.112 60.1761C474.802 59.9186 474.415 59.7898 473.953 59.7898C473.48 59.7898 473.086 59.9186 472.771 60.1761C472.461 60.4337 472.228 60.7803 472.072 61.2159C471.921 61.6477 471.845 62.1307 471.845 62.6648C471.845 63.1951 471.921 63.6761 472.072 64.108C472.228 64.5398 472.461 64.8845 472.771 65.142C473.086 65.3958 473.48 65.5227 473.953 65.5227ZM484.227 58.2727V59.8636H479.21V58.2727H484.227ZM480.449 56.1818H482.506V64.375C482.506 64.6515 482.547 64.8636 482.631 65.0114C482.718 65.1553 482.831 65.2538 482.972 65.3068C483.112 65.3598 483.267 65.3864 483.438 65.3864C483.566 65.3864 483.684 65.3769 483.79 65.358C483.9 65.339 483.983 65.322 484.04 65.3068L484.386 66.9148C484.277 66.9527 484.119 66.9943 483.915 67.0398C483.714 67.0852 483.468 67.1117 483.176 67.1193C482.661 67.1345 482.197 67.0568 481.784 66.8864C481.371 66.7121 481.044 66.4432 480.801 66.0795C480.563 65.7159 480.445 65.2614 480.449 64.7159V56.1818ZM488.192 61.8864V67H486.135V55.3636H488.146V59.7557H488.249C488.453 59.2633 488.769 58.875 489.197 58.5909C489.629 58.303 490.179 58.1591 490.845 58.1591C491.451 58.1591 491.98 58.286 492.43 58.5398C492.881 58.7936 493.23 59.1648 493.476 59.6534C493.726 60.142 493.851 60.7386 493.851 61.4432V67H491.794V61.7614C491.794 61.1742 491.643 60.7178 491.339 60.392C491.04 60.0625 490.62 59.8977 490.078 59.8977C489.714 59.8977 489.389 59.9773 489.101 60.1364C488.817 60.2917 488.593 60.517 488.43 60.8125C488.271 61.108 488.192 61.4659 488.192 61.8864ZM501.237 61.3068V63H495.999V61.3068H501.237ZM510.298 60.5795L508.423 60.7841C508.37 60.5947 508.277 60.4167 508.145 60.25C508.016 60.0833 507.842 59.9489 507.622 59.8466C507.402 59.7443 507.134 59.6932 506.815 59.6932C506.387 59.6932 506.027 59.786 505.736 59.9716C505.448 60.1572 505.306 60.3977 505.31 60.6932C505.306 60.947 505.399 61.1534 505.588 61.3125C505.781 61.4716 506.099 61.6023 506.543 61.7045L508.031 62.0227C508.857 62.2008 509.471 62.483 509.872 62.8693C510.277 63.2557 510.482 63.7614 510.486 64.3864C510.482 64.9356 510.321 65.4205 510.003 65.8409C509.688 66.2576 509.251 66.5833 508.69 66.8182C508.13 67.053 507.486 67.1705 506.759 67.1705C505.69 67.1705 504.83 66.947 504.179 66.5C503.527 66.0492 503.139 65.4223 503.014 64.6193L505.02 64.4261C505.111 64.8201 505.304 65.1174 505.599 65.3182C505.895 65.5189 506.279 65.6193 506.753 65.6193C507.241 65.6193 507.634 65.5189 507.929 65.3182C508.228 65.1174 508.378 64.8693 508.378 64.5739C508.378 64.3239 508.281 64.1174 508.088 63.9545C507.899 63.7917 507.603 63.6667 507.202 63.5795L505.713 63.267C504.876 63.0928 504.257 62.7992 503.855 62.3864C503.454 61.9697 503.255 61.4432 503.259 60.8068C503.255 60.2689 503.401 59.803 503.696 59.4091C503.995 59.0114 504.41 58.7045 504.94 58.4886C505.474 58.2689 506.09 58.1591 506.787 58.1591C507.81 58.1591 508.615 58.3769 509.202 58.8125C509.793 59.2481 510.158 59.8371 510.298 60.5795ZM512.182 67V58.2727H514.239V67H512.182ZM513.216 57.0341C512.89 57.0341 512.61 56.9261 512.375 56.7102C512.14 56.4905 512.023 56.2273 512.023 55.9205C512.023 55.6098 512.14 55.3466 512.375 55.1307C512.61 54.911 512.89 54.8011 513.216 54.8011C513.545 54.8011 513.826 54.911 514.057 55.1307C514.292 55.3466 514.409 55.6098 514.409 55.9205C514.409 56.2273 514.292 56.4905 514.057 56.7102C513.826 56.9261 513.545 57.0341 513.216 57.0341ZM519.592 67.1534C518.907 67.1534 518.293 66.9773 517.751 66.625C517.21 66.2727 516.782 65.7614 516.467 65.0909C516.153 64.4205 515.996 63.6061 515.996 62.6477C515.996 61.678 516.155 60.8598 516.473 60.1932C516.795 59.5227 517.229 59.017 517.774 58.6761C518.32 58.3314 518.928 58.1591 519.598 58.1591C520.109 58.1591 520.53 58.2462 520.859 58.4205C521.189 58.5909 521.45 58.7973 521.643 59.0398C521.837 59.2784 521.986 59.5038 522.092 59.7159H522.178V55.3636H524.24V67H522.217V65.625H522.092C521.986 65.8371 521.833 66.0625 521.632 66.3011C521.431 66.536 521.166 66.7367 520.837 66.9034C520.507 67.0701 520.092 67.1534 519.592 67.1534ZM520.166 65.4659C520.602 65.4659 520.973 65.3485 521.28 65.1136C521.587 64.875 521.82 64.5436 521.979 64.1193C522.138 63.6951 522.217 63.2008 522.217 62.6364C522.217 62.072 522.138 61.5814 521.979 61.1648C521.823 60.7481 521.592 60.4242 521.286 60.1932C520.982 59.9621 520.609 59.8466 520.166 59.8466C519.708 59.8466 519.325 59.9659 519.018 60.2045C518.712 60.4432 518.481 60.7727 518.325 61.1932C518.17 61.6136 518.092 62.0947 518.092 62.6364C518.092 63.1818 518.17 63.6686 518.325 64.0966C518.484 64.5208 518.717 64.8561 519.024 65.1023C519.335 65.3447 519.715 65.4659 520.166 65.4659ZM530.295 67.1705C529.42 67.1705 528.665 66.9886 528.028 66.625C527.396 66.2576 526.909 65.7386 526.568 65.0682C526.227 64.3939 526.057 63.6004 526.057 62.6875C526.057 61.7898 526.227 61.0019 526.568 60.3239C526.913 59.642 527.394 59.1117 528.011 58.733C528.629 58.3504 529.354 58.1591 530.188 58.1591C530.725 58.1591 531.233 58.2462 531.71 58.4205C532.191 58.5909 532.616 58.8561 532.983 59.2159C533.354 59.5758 533.646 60.0341 533.858 60.5909C534.07 61.1439 534.176 61.803 534.176 62.5682V63.1989H527.023V61.8125H532.205C532.201 61.4186 532.116 61.0682 531.949 60.7614C531.782 60.4508 531.549 60.2064 531.25 60.0284C530.955 59.8504 530.61 59.7614 530.216 59.7614C529.795 59.7614 529.426 59.8636 529.108 60.0682C528.79 60.2689 528.542 60.5341 528.364 60.8636C528.189 61.1894 528.1 61.5473 528.097 61.9375V63.1477C528.097 63.6553 528.189 64.0909 528.375 64.4545C528.561 64.8144 528.82 65.0909 529.153 65.2841C529.487 65.4735 529.877 65.5682 530.324 65.5682C530.623 65.5682 530.894 65.5265 531.136 65.4432C531.379 65.3561 531.589 65.2292 531.767 65.0625C531.945 64.8958 532.08 64.6894 532.17 64.4432L534.091 64.6591C533.97 65.1667 533.739 65.6098 533.398 65.9886C533.061 66.3636 532.629 66.6553 532.102 66.8636C531.576 67.0682 530.973 67.1705 530.295 67.1705ZM542.814 60.5795L540.939 60.7841C540.886 60.5947 540.793 60.4167 540.661 60.25C540.532 60.0833 540.357 59.9489 540.138 59.8466C539.918 59.7443 539.649 59.6932 539.331 59.6932C538.903 59.6932 538.543 59.786 538.251 59.9716C537.964 60.1572 537.821 60.3977 537.825 60.6932C537.821 60.947 537.914 61.1534 538.104 61.3125C538.297 61.4716 538.615 61.6023 539.058 61.7045L540.547 62.0227C541.373 62.2008 541.986 62.483 542.388 62.8693C542.793 63.2557 542.998 63.7614 543.001 64.3864C542.998 64.9356 542.837 65.4205 542.518 65.8409C542.204 66.2576 541.767 66.5833 541.206 66.8182C540.645 67.053 540.001 67.1705 539.274 67.1705C538.206 67.1705 537.346 66.947 536.695 66.5C536.043 66.0492 535.655 65.4223 535.53 64.6193L537.536 64.4261C537.626 64.8201 537.82 65.1174 538.115 65.3182C538.411 65.5189 538.795 65.6193 539.268 65.6193C539.757 65.6193 540.149 65.5189 540.445 65.3182C540.744 65.1174 540.893 64.8693 540.893 64.5739C540.893 64.3239 540.797 64.1174 540.604 63.9545C540.414 63.7917 540.119 63.6667 539.717 63.5795L538.229 63.267C537.392 63.0928 536.772 62.7992 536.371 62.3864C535.969 61.9697 535.77 61.4432 535.774 60.8068C535.77 60.2689 535.916 59.803 536.212 59.4091C536.511 59.0114 536.926 58.7045 537.456 58.4886C537.99 58.2689 538.606 58.1591 539.303 58.1591C540.325 58.1591 541.13 58.3769 541.717 58.8125C542.308 59.2481 542.674 59.8371 542.814 60.5795ZM545.964 67.125C545.62 67.125 545.324 67.0038 545.078 66.7614C544.832 66.5189 544.711 66.2235 544.714 65.875C544.711 65.5341 544.832 65.2424 545.078 65C545.324 64.7576 545.62 64.6364 545.964 64.6364C546.298 64.6364 546.588 64.7576 546.834 65C547.084 65.2424 547.211 65.5341 547.214 65.875C547.211 66.1061 547.15 66.3163 547.033 66.5057C546.919 66.6951 546.768 66.8466 546.578 66.9602C546.393 67.0701 546.188 67.125 545.964 67.125ZM549.338 70.2727V58.2727H551.361V59.7159H551.48C551.586 59.5038 551.736 59.2784 551.929 59.0398C552.122 58.7973 552.384 58.5909 552.713 58.4205C553.043 58.2462 553.463 58.1591 553.974 58.1591C554.649 58.1591 555.257 58.3314 555.798 58.6761C556.344 59.017 556.776 59.5227 557.094 60.1932C557.416 60.8598 557.577 61.678 557.577 62.6477C557.577 63.6061 557.42 64.4205 557.105 65.0909C556.791 65.7614 556.363 66.2727 555.821 66.625C555.279 66.9773 554.666 67.1534 553.98 67.1534C553.48 67.1534 553.065 67.0701 552.736 66.9034C552.406 66.7367 552.141 66.536 551.94 66.3011C551.743 66.0625 551.59 65.8371 551.48 65.625H551.395V70.2727H549.338ZM551.355 62.6364C551.355 63.2008 551.435 63.6951 551.594 64.1193C551.757 64.5436 551.99 64.875 552.293 65.1136C552.599 65.3485 552.971 65.4659 553.406 65.4659C553.861 65.4659 554.241 65.3447 554.548 65.1023C554.855 64.8561 555.086 64.5208 555.241 64.0966C555.401 63.6686 555.48 63.1818 555.48 62.6364C555.48 62.0947 555.402 61.6136 555.247 61.1932C555.092 60.7727 554.861 60.4432 554.554 60.2045C554.247 59.9659 553.865 59.8466 553.406 59.8466C552.967 59.8466 552.594 59.9621 552.287 60.1932C551.98 60.4242 551.747 60.7481 551.588 61.1648C551.433 61.5814 551.355 62.072 551.355 62.6364ZM562.577 67.1534C561.891 67.1534 561.277 66.9773 560.736 66.625C560.194 66.2727 559.766 65.7614 559.452 65.0909C559.137 64.4205 558.98 63.6061 558.98 62.6477C558.98 61.678 559.139 60.8598 559.457 60.1932C559.779 59.5227 560.213 59.017 560.759 58.6761C561.304 58.3314 561.912 58.1591 562.582 58.1591C563.094 58.1591 563.514 58.2462 563.844 58.4205C564.173 58.5909 564.435 58.7973 564.628 59.0398C564.821 59.2784 564.971 59.5038 565.077 59.7159H565.162V55.3636H567.224V67H565.202V65.625H565.077C564.971 65.8371 564.817 66.0625 564.616 66.3011C564.416 66.536 564.151 66.7367 563.821 66.9034C563.491 67.0701 563.077 67.1534 562.577 67.1534ZM563.151 65.4659C563.586 65.4659 563.957 65.3485 564.264 65.1136C564.571 64.875 564.804 64.5436 564.963 64.1193C565.122 63.6951 565.202 63.2008 565.202 62.6364C565.202 62.072 565.122 61.5814 564.963 61.1648C564.808 60.7481 564.577 60.4242 564.27 60.1932C563.967 59.9621 563.594 59.8466 563.151 59.8466C562.692 59.8466 562.31 59.9659 562.003 60.2045C561.696 60.4432 561.465 60.7727 561.31 61.1932C561.154 61.6136 561.077 62.0947 561.077 62.6364C561.077 63.1818 561.154 63.6686 561.31 64.0966C561.469 64.5208 561.702 64.8561 562.009 65.1023C562.319 65.3447 562.7 65.4659 563.151 65.4659ZM573.837 58.2727V59.8636H568.678V58.2727H573.837ZM569.967 67V57.4489C569.967 56.8617 570.089 56.3731 570.331 55.983C570.577 55.5928 570.907 55.3011 571.32 55.108C571.732 54.9148 572.191 54.8182 572.695 54.8182C573.051 54.8182 573.367 54.8466 573.643 54.9034C573.92 54.9602 574.125 55.0114 574.257 55.0568L573.848 56.6477C573.761 56.6212 573.651 56.5947 573.518 56.5682C573.386 56.5379 573.238 56.5227 573.075 56.5227C572.693 56.5227 572.422 56.6155 572.263 56.8011C572.107 56.983 572.03 57.2443 572.03 57.5852V67H569.967Z" fill="white"/>
<rect x="28" y="28" width="373" height="283" rx="10" fill="#2A2A2A"/>
<rect x="58" y="74" width="152" height="214" fill="white"/>
<rect x="68" y="86" width="58" height="36" rx="2" fill="#FCB500"/>
<line x1="95.8" y1="95.2" x2="117.2" y2="95.2" stroke="#585858" stroke-width="1.6" stroke-linecap="round"/>
<line x1="95.8" y1="101.2" x2="117.2" y2="101.2" stroke="#585858" stroke-width="1.6" stroke-linecap="round"/>
<line x1="95.8" y1="108.2" x2="117.2" y2="108.2" stroke="#585858" stroke-width="1.6" stroke-linecap="round"/>
<mask id="mask1_4_2" style="mask-type:alpha" maskUnits="userSpaceOnUse" x="73" y="92" width="16" height="19">
<rect x="73" y="92" width="16" height="19" fill="#B77A7A"/>
</mask>
<g mask="url(#mask1_4_2)">
<rect x="73" y="92" width="16" height="19" fill="white"/>
<path d="M81 98L87.9282 113.75H74.0718L81 98Z" fill="#969696"/>
<circle cx="81" cy="100" r="5" fill="#969696"/>
</g>
<path d="M65.4773 58.2727V59.8636H60.3182V58.2727H65.4773ZM61.608 67V57.4489C61.608 56.8617 61.7292 56.3731 61.9716 55.983C62.2178 55.5928 62.5473 55.3011 62.9602 55.108C63.3731 54.9148 63.8314 54.8182 64.3352 54.8182C64.6913 54.8182 65.0076 54.8466 65.2841 54.9034C65.5606 54.9602 65.7652 55.0114 65.8977 55.0568L65.4886 56.6477C65.4015 56.6212 65.2917 56.5947 65.1591 56.5682C65.0265 56.5379 64.8788 56.5227 64.7159 56.5227C64.3333 56.5227 64.0625 56.6155 63.9034 56.8011C63.7481 56.983 63.6705 57.2443 63.6705 57.5852V67H61.608ZM67.0881 67V58.2727H69.0824V59.7273H69.1733C69.3324 59.2235 69.6051 58.8352 69.9915 58.5625C70.3816 58.286 70.8267 58.1477 71.3267 58.1477C71.4403 58.1477 71.5672 58.1534 71.7074 58.1648C71.8513 58.1723 71.9706 58.1856 72.0653 58.2045V60.0966C71.9782 60.0663 71.84 60.0398 71.6506 60.017C71.465 59.9905 71.285 59.9773 71.1108 59.9773C70.7358 59.9773 70.3987 60.0587 70.0994 60.2216C69.804 60.3807 69.571 60.6023 69.4006 60.8864C69.2301 61.1705 69.1449 61.4981 69.1449 61.8693V67H67.0881ZM76.8793 67.1705C76.027 67.1705 75.2884 66.983 74.6634 66.608C74.0384 66.233 73.5535 65.7083 73.2088 65.0341C72.8679 64.3598 72.6974 63.572 72.6974 62.6705C72.6974 61.7689 72.8679 60.9792 73.2088 60.3011C73.5535 59.6231 74.0384 59.0966 74.6634 58.7216C75.2884 58.3466 76.027 58.1591 76.8793 58.1591C77.7315 58.1591 78.4702 58.3466 79.0952 58.7216C79.7202 59.0966 80.2031 59.6231 80.544 60.3011C80.8887 60.9792 81.0611 61.7689 81.0611 62.6705C81.0611 63.572 80.8887 64.3598 80.544 65.0341C80.2031 65.7083 79.7202 66.233 79.0952 66.608C78.4702 66.983 77.7315 67.1705 76.8793 67.1705ZM76.8906 65.5227C77.3527 65.5227 77.7391 65.3958 78.0497 65.142C78.3603 64.8845 78.5914 64.5398 78.7429 64.108C78.8982 63.6761 78.9759 63.1951 78.9759 62.6648C78.9759 62.1307 78.8982 61.6477 78.7429 61.2159C78.5914 60.7803 78.3603 60.4337 78.0497 60.1761C77.7391 59.9186 77.3527 59.7898 76.8906 59.7898C76.4171 59.7898 76.0232 59.9186 75.7088 60.1761C75.3982 60.4337 75.1652 60.7803 75.0099 61.2159C74.8584 61.6477 74.7827 62.1307 74.7827 62.6648C74.7827 63.1951 74.8584 63.6761 75.0099 64.108C75.1652 64.5398 75.3982 64.8845 75.7088 65.142C76.0232 65.3958 76.4171 65.5227 76.8906 65.5227ZM84.8636 61.8864V67H82.8068V58.2727H84.7727V59.7557H84.875C85.0758 59.267 85.3958 58.8788 85.8352 58.5909C86.2784 58.303 86.8258 58.1591 87.4773 58.1591C88.0795 58.1591 88.6042 58.2879 89.0511 58.5455C89.5019 58.803 89.8504 59.1761 90.0966 59.6648C90.3466 60.1534 90.4697 60.7462 90.4659 61.4432V67H88.4091V61.7614C88.4091 61.178 88.2576 60.7216 87.9545 60.392C87.6553 60.0625 87.2405 59.8977 86.7102 59.8977C86.3504 59.8977 86.0303 59.9773 85.75 60.1364C85.4735 60.2917 85.2557 60.517 85.0966 60.8125C84.9413 61.108 84.8636 61.4659 84.8636 61.8864ZM96.9148 58.2727V59.8636H91.8977V58.2727H96.9148ZM93.1364 56.1818H95.1932V64.375C95.1932 64.6515 95.2348 64.8636 95.3182 65.0114C95.4053 65.1553 95.5189 65.2538 95.6591 65.3068C95.7992 65.3598 95.9545 65.3864 96.125 65.3864C96.2538 65.3864 96.3712 65.3769 96.4773 65.358C96.5871 65.339 96.6705 65.322 96.7273 65.3068L97.0739 66.9148C96.964 66.9527 96.8068 66.9943 96.6023 67.0398C96.4015 67.0852 96.1553 67.1117 95.8636 67.1193C95.3485 67.1345 94.8845 67.0568 94.4716 66.8864C94.0587 66.7121 93.7311 66.4432 93.4886 66.0795C93.25 65.7159 93.1326 65.2614 93.1364 64.7159V56.1818ZM103.643 61.3068V63H98.4048V61.3068H103.643ZM112.705 60.5795L110.83 60.7841C110.777 60.5947 110.684 60.4167 110.551 60.25C110.422 60.0833 110.248 59.9489 110.028 59.8466C109.809 59.7443 109.54 59.6932 109.222 59.6932C108.794 59.6932 108.434 59.786 108.142 59.9716C107.854 60.1572 107.712 60.3977 107.716 60.6932C107.712 60.947 107.805 61.1534 107.994 61.3125C108.188 61.4716 108.506 61.6023 108.949 61.7045L110.438 62.0227C111.263 62.2008 111.877 62.483 112.278 62.8693C112.684 63.2557 112.888 63.7614 112.892 64.3864C112.888 64.9356 112.727 65.4205 112.409 65.8409C112.095 66.2576 111.657 66.5833 111.097 66.8182C110.536 67.053 109.892 67.1705 109.165 67.1705C108.097 67.1705 107.237 66.947 106.585 66.5C105.934 66.0492 105.545 65.4223 105.42 64.6193L107.426 64.4261C107.517 64.8201 107.71 65.1174 108.006 65.3182C108.301 65.5189 108.686 65.6193 109.159 65.6193C109.648 65.6193 110.04 65.5189 110.335 65.3182C110.634 65.1174 110.784 64.8693 110.784 64.5739C110.784 64.3239 110.688 64.1174 110.494 63.9545C110.305 63.7917 110.009 63.6667 109.608 63.5795L108.119 63.267C107.282 63.0928 106.663 62.7992 106.261 62.3864C105.86 61.9697 105.661 61.4432 105.665 60.8068C105.661 60.2689 105.807 59.803 106.102 59.4091C106.402 59.0114 106.816 58.7045 107.347 58.4886C107.881 58.2689 108.496 58.1591 109.193 58.1591C110.216 58.1591 111.021 58.3769 111.608 58.8125C112.199 59.2481 112.564 59.8371 112.705 60.5795ZM114.588 67V58.2727H116.645V67H114.588ZM115.622 57.0341C115.296 57.0341 115.016 56.9261 114.781 56.7102C114.546 56.4905 114.429 56.2273 114.429 55.9205C114.429 55.6098 114.546 55.3466 114.781 55.1307C115.016 54.911 115.296 54.8011 115.622 54.8011C115.952 54.8011 116.232 54.911 116.463 55.1307C116.698 55.3466 116.815 55.6098 116.815 55.9205C116.815 56.2273 116.698 56.4905 116.463 56.7102C116.232 56.9261 115.952 57.0341 115.622 57.0341ZM121.999 67.1534C121.313 67.1534 120.699 66.9773 120.158 66.625C119.616 66.2727 119.188 65.7614 118.874 65.0909C118.559 64.4205 118.402 63.6061 118.402 62.6477C118.402 61.678 118.561 60.8598 118.879 60.1932C119.201 59.5227 119.635 59.017 120.18 58.6761C120.726 58.3314 121.334 58.1591 122.004 58.1591C122.516 58.1591 122.936 58.2462 123.266 58.4205C123.595 58.5909 123.857 58.7973 124.05 59.0398C124.243 59.2784 124.393 59.5038 124.499 59.7159H124.584V55.3636H126.646V67H124.624V65.625H124.499C124.393 65.8371 124.239 66.0625 124.038 66.3011C123.838 66.536 123.572 66.7367 123.243 66.9034C122.913 67.0701 122.499 67.1534 121.999 67.1534ZM122.572 65.4659C123.008 65.4659 123.379 65.3485 123.686 65.1136C123.993 64.875 124.226 64.5436 124.385 64.1193C124.544 63.6951 124.624 63.2008 124.624 62.6364C124.624 62.072 124.544 61.5814 124.385 61.1648C124.23 60.7481 123.999 60.4242 123.692 60.1932C123.389 59.9621 123.016 59.8466 122.572 59.8466C122.114 59.8466 121.732 59.9659 121.425 60.2045C121.118 60.4432 120.887 60.7727 120.732 61.1932C120.576 61.6136 120.499 62.0947 120.499 62.6364C120.499 63.1818 120.576 63.6686 120.732 64.0966C120.891 64.5208 121.124 64.8561 121.43 65.1023C121.741 65.3447 122.122 65.4659 122.572 65.4659ZM132.702 67.1705C131.827 67.1705 131.071 66.9886 130.435 66.625C129.802 66.2576 129.315 65.7386 128.974 65.0682C128.634 64.3939 128.463 63.6004 128.463 62.6875C128.463 61.7898 128.634 61.0019 128.974 60.3239C129.319 59.642 129.8 59.1117 130.418 58.733C131.035 58.3504 131.76 58.1591 132.594 58.1591C133.132 58.1591 133.639 58.2462 134.116 58.4205C134.598 58.5909 135.022 58.8561 135.389 59.2159C135.76 59.5758 136.052 60.0341 136.264 60.5909C136.476 61.1439 136.582 61.803 136.582 62.5682V63.1989H129.429V61.8125H134.611C134.607 61.4186 134.522 61.0682 134.355 60.7614C134.188 60.4508 133.955 60.2064 133.656 60.0284C133.361 59.8504 133.016 59.7614 132.622 59.7614C132.202 59.7614 131.832 59.8636 131.514 60.0682C131.196 60.2689 130.948 60.5341 130.77 60.8636C130.596 61.1894 130.507 61.5473 130.503 61.9375V63.1477C130.503 63.6553 130.596 64.0909 130.781 64.4545C130.967 64.8144 131.226 65.0909 131.56 65.2841C131.893 65.4735 132.283 65.5682 132.73 65.5682C133.029 65.5682 133.3 65.5265 133.543 65.4432C133.785 65.3561 133.995 65.2292 134.173 65.0625C134.351 64.8958 134.486 64.6894 134.577 64.4432L136.497 64.6591C136.376 65.1667 136.145 65.6098 135.804 65.9886C135.467 66.3636 135.035 66.6553 134.509 66.8636C133.982 67.0682 133.38 67.1705 132.702 67.1705ZM139.589 67.125C139.245 67.125 138.949 67.0038 138.703 66.7614C138.457 66.5189 138.336 66.2235 138.339 65.875C138.336 65.5341 138.457 65.2424 138.703 65C138.949 64.7576 139.245 64.6364 139.589 64.6364C139.923 64.6364 140.213 64.7576 140.459 65C140.709 65.2424 140.836 65.5341 140.839 65.875C140.836 66.1061 140.775 66.3163 140.658 66.5057C140.544 66.6951 140.393 66.8466 140.203 66.9602C140.018 67.0701 139.813 67.125 139.589 67.125ZM142.963 70.2727V58.2727H144.986V59.7159H145.105C145.211 59.5038 145.361 59.2784 145.554 59.0398C145.747 58.7973 146.009 58.5909 146.338 58.4205C146.668 58.2462 147.088 58.1591 147.599 58.1591C148.274 58.1591 148.882 58.3314 149.423 58.6761C149.969 59.017 150.401 59.5227 150.719 60.1932C151.041 60.8598 151.202 61.678 151.202 62.6477C151.202 63.6061 151.045 64.4205 150.73 65.0909C150.416 65.7614 149.988 66.2727 149.446 66.625C148.904 66.9773 148.291 67.1534 147.605 67.1534C147.105 67.1534 146.69 67.0701 146.361 66.9034C146.031 66.7367 145.766 66.536 145.565 66.3011C145.368 66.0625 145.215 65.8371 145.105 65.625H145.02V70.2727H142.963ZM144.98 62.6364C144.98 63.2008 145.06 63.6951 145.219 64.1193C145.382 64.5436 145.615 64.875 145.918 65.1136C146.224 65.3485 146.596 65.4659 147.031 65.4659C147.486 65.4659 147.866 65.3447 148.173 65.1023C148.48 64.8561 148.711 64.5208 148.866 64.0966C149.026 63.6686 149.105 63.1818 149.105 62.6364C149.105 62.0947 149.027 61.6136 148.872 61.1932C148.717 60.7727 148.486 60.4432 148.179 60.2045C147.872 59.9659 147.49 59.8466 147.031 59.8466C146.592 59.8466 146.219 59.9621 145.912 60.1932C145.605 60.4242 145.372 60.7481 145.213 61.1648C145.058 61.5814 144.98 62.072 144.98 62.6364ZM156.202 67.1534C155.516 67.1534 154.902 66.9773 154.361 66.625C153.819 66.2727 153.391 65.7614 153.077 65.0909C152.762 64.4205 152.605 63.6061 152.605 62.6477C152.605 61.678 152.764 60.8598 153.082 60.1932C153.404 59.5227 153.838 59.017 154.384 58.6761C154.929 58.3314 155.537 58.1591 156.207 58.1591C156.719 58.1591 157.139 58.2462 157.469 58.4205C157.798 58.5909 158.06 58.7973 158.253 59.0398C158.446 59.2784 158.596 59.5038 158.702 59.7159H158.787V55.3636H160.849V67H158.827V65.625H158.702C158.596 65.8371 158.442 66.0625 158.241 66.3011C158.041 66.536 157.776 66.7367 157.446 66.9034C157.116 67.0701 156.702 67.1534 156.202 67.1534ZM156.776 65.4659C157.211 65.4659 157.582 65.3485 157.889 65.1136C158.196 64.875 158.429 64.5436 158.588 64.1193C158.747 63.6951 158.827 63.2008 158.827 62.6364C158.827 62.072 158.747 61.5814 158.588 61.1648C158.433 60.7481 158.202 60.4242 157.895 60.1932C157.592 59.9621 157.219 59.8466 156.776 59.8466C156.317 59.8466 155.935 59.9659 155.628 60.2045C155.321 60.4432 155.09 60.7727 154.935 61.1932C154.779 61.6136 154.702 62.0947 154.702 62.6364C154.702 63.1818 154.779 63.6686 154.935 64.0966C155.094 64.5208 155.327 64.8561 155.634 65.1023C155.944 65.3447 156.325 65.4659 156.776 65.4659ZM167.462 58.2727V59.8636H162.303V58.2727H167.462ZM163.592 67V57.4489C163.592 56.8617 163.714 56.3731 163.956 55.983C164.202 55.5928 164.532 55.3011 164.945 55.108C165.357 54.9148 165.816 54.8182 166.32 54.8182C166.676 54.8182 166.992 54.8466 167.268 54.9034C167.545 54.9602 167.75 55.0114 167.882 55.0568L167.473 56.6477C167.386 56.6212 167.276 56.5947 167.143 56.5682C167.011 56.5379 166.863 56.5227 166.7 56.5227C166.318 56.5227 166.047 56.6155 165.888 56.8011C165.732 56.983 165.655 57.2443 165.655 57.5852V67H163.592Z" fill="white"/>
<rect x="219" y="74" width="152" height="214" fill="white"/>
<rect x="229" y="86" width="58" height="36" rx="2" fill="#FFDA7E"/>
<line x1="237.8" y1="94.2" x2="278.2" y2="94.2" stroke="#545454" stroke-width="1.6" stroke-linecap="round"/>
<line x1="237.8" y1="100.2" x2="278.2" y2="100.2" stroke="#545454" stroke-width="1.6" stroke-linecap="round"/>
<line x1="237.8" y1="107.2" x2="278.2" y2="107.2" stroke="#545454" stroke-width="1.6" stroke-linecap="round"/>
<path d="M222.148 67V55.3636H224.205V59.7159H224.29C224.396 59.5038 224.545 59.2784 224.739 59.0398C224.932 58.7973 225.193 58.5909 225.523 58.4205C225.852 58.2462 226.273 58.1591 226.784 58.1591C227.458 58.1591 228.066 58.3314 228.608 58.6761C229.153 59.017 229.585 59.5227 229.903 60.1932C230.225 60.8598 230.386 61.678 230.386 62.6477C230.386 63.6061 230.229 64.4205 229.915 65.0909C229.6 65.7614 229.172 66.2727 228.631 66.625C228.089 66.9773 227.475 67.1534 226.79 67.1534C226.29 67.1534 225.875 67.0701 225.545 66.9034C225.216 66.7367 224.951 66.536 224.75 66.3011C224.553 66.0625 224.4 65.8371 224.29 65.625H224.17V67H222.148ZM224.165 62.6364C224.165 63.2008 224.244 63.6951 224.403 64.1193C224.566 64.5436 224.799 64.875 225.102 65.1136C225.409 65.3485 225.78 65.4659 226.216 65.4659C226.67 65.4659 227.051 65.3447 227.358 65.1023C227.665 64.8561 227.896 64.5208 228.051 64.0966C228.21 63.6686 228.29 63.1818 228.29 62.6364C228.29 62.0947 228.212 61.6136 228.057 61.1932C227.902 60.7727 227.67 60.4432 227.364 60.2045C227.057 59.9659 226.674 59.8466 226.216 59.8466C225.777 59.8466 225.403 59.9621 225.097 60.1932C224.79 60.4242 224.557 60.7481 224.398 61.1648C224.242 61.5814 224.165 62.072 224.165 62.6364ZM234.646 67.1761C234.093 67.1761 233.595 67.0777 233.152 66.8807C232.713 66.6799 232.364 66.3845 232.107 65.9943C231.853 65.6042 231.726 65.1231 231.726 64.5511C231.726 64.0587 231.817 63.6515 231.999 63.3295C232.18 63.0076 232.429 62.75 232.743 62.5568C233.057 62.3636 233.411 62.2178 233.805 62.1193C234.203 62.017 234.614 61.9432 235.038 61.8977C235.55 61.8447 235.964 61.7973 236.283 61.7557C236.601 61.7102 236.832 61.642 236.976 61.5511C237.124 61.4564 237.197 61.3106 237.197 61.1136V61.0795C237.197 60.6515 237.071 60.3201 236.817 60.0852C236.563 59.8504 236.197 59.733 235.72 59.733C235.216 59.733 234.817 59.8428 234.521 60.0625C234.23 60.2822 234.033 60.5417 233.93 60.8409L232.01 60.5682C232.161 60.0379 232.411 59.5947 232.76 59.2386C233.108 58.8788 233.535 58.6098 234.038 58.4318C234.542 58.25 235.099 58.1591 235.709 58.1591C236.129 58.1591 236.548 58.2083 236.964 58.3068C237.381 58.4053 237.762 58.5682 238.107 58.7955C238.451 59.0189 238.728 59.3239 238.936 59.7102C239.148 60.0966 239.254 60.5795 239.254 61.1591V67H237.277V65.8011H237.209C237.084 66.0436 236.908 66.2708 236.68 66.483C236.457 66.6913 236.175 66.8598 235.834 66.9886C235.497 67.1136 235.101 67.1761 234.646 67.1761ZM235.18 65.6648C235.593 65.6648 235.951 65.5833 236.254 65.4205C236.557 65.2538 236.79 65.0341 236.953 64.7614C237.12 64.4886 237.203 64.1913 237.203 63.8693V62.8409C237.139 62.8939 237.029 62.9432 236.874 62.9886C236.722 63.0341 236.552 63.0739 236.362 63.108C236.173 63.142 235.985 63.1723 235.8 63.1989C235.614 63.2254 235.453 63.2481 235.317 63.267C235.01 63.3087 234.735 63.3769 234.493 63.4716C234.25 63.5663 234.059 63.6989 233.919 63.8693C233.779 64.036 233.709 64.2519 233.709 64.517C233.709 64.8958 233.847 65.1818 234.124 65.375C234.4 65.5682 234.752 65.6648 235.18 65.6648ZM245.129 67.1705C244.258 67.1705 243.51 66.9792 242.885 66.5966C242.264 66.214 241.785 65.6856 241.447 65.0114C241.114 64.3333 240.947 63.553 240.947 62.6705C240.947 61.7841 241.118 61.0019 241.459 60.3239C241.8 59.642 242.281 59.1117 242.902 58.733C243.527 58.3504 244.266 58.1591 245.118 58.1591C245.826 58.1591 246.453 58.2898 246.999 58.5511C247.548 58.8087 247.985 59.1742 248.311 59.6477C248.637 60.1174 248.822 60.6667 248.868 61.2955H246.902C246.822 60.875 246.633 60.5246 246.334 60.2443C246.038 59.9602 245.643 59.8182 245.146 59.8182C244.726 59.8182 244.357 59.9318 244.038 60.1591C243.72 60.3826 243.472 60.7045 243.294 61.125C243.12 61.5455 243.033 62.0492 243.033 62.6364C243.033 63.2311 243.12 63.7424 243.294 64.1705C243.468 64.5947 243.713 64.9223 244.027 65.1534C244.345 65.3807 244.718 65.4943 245.146 65.4943C245.449 65.4943 245.72 65.4375 245.959 65.3239C246.201 65.2064 246.404 65.0379 246.567 64.8182C246.73 64.5985 246.841 64.3314 246.902 64.017H248.868C248.819 64.6345 248.637 65.1818 248.322 65.6591C248.008 66.1326 247.58 66.5038 247.038 66.7727C246.497 67.0379 245.86 67.1705 245.129 67.1705ZM252.432 64.2614L252.426 61.7784H252.756L255.892 58.2727H258.295L254.438 62.5682H254.011L252.432 64.2614ZM250.557 67V55.3636H252.614V67H250.557ZM256.034 67L253.193 63.0284L254.58 61.5795L258.494 67H256.034ZM264.518 61.3068V63H259.28V61.3068H264.518ZM273.58 60.5795L271.705 60.7841C271.652 60.5947 271.559 60.4167 271.426 60.25C271.297 60.0833 271.123 59.9489 270.903 59.8466C270.684 59.7443 270.415 59.6932 270.097 59.6932C269.669 59.6932 269.309 59.786 269.017 59.9716C268.729 60.1572 268.587 60.3977 268.591 60.6932C268.587 60.947 268.68 61.1534 268.869 61.3125C269.063 61.4716 269.381 61.6023 269.824 61.7045L271.312 62.0227C272.138 62.2008 272.752 62.483 273.153 62.8693C273.559 63.2557 273.763 63.7614 273.767 64.3864C273.763 64.9356 273.602 65.4205 273.284 65.8409C272.97 66.2576 272.532 66.5833 271.972 66.8182C271.411 67.053 270.767 67.1705 270.04 67.1705C268.972 67.1705 268.112 66.947 267.46 66.5C266.809 66.0492 266.42 65.4223 266.295 64.6193L268.301 64.4261C268.392 64.8201 268.585 65.1174 268.881 65.3182C269.176 65.5189 269.561 65.6193 270.034 65.6193C270.523 65.6193 270.915 65.5189 271.21 65.3182C271.509 65.1174 271.659 64.8693 271.659 64.5739C271.659 64.3239 271.563 64.1174 271.369 63.9545C271.18 63.7917 270.884 63.6667 270.483 63.5795L268.994 63.267C268.157 63.0928 267.538 62.7992 267.136 62.3864C266.735 61.9697 266.536 61.4432 266.54 60.8068C266.536 60.2689 266.682 59.803 266.977 59.4091C267.277 59.0114 267.691 58.7045 268.222 58.4886C268.756 58.2689 269.371 58.1591 270.068 58.1591C271.091 58.1591 271.896 58.3769 272.483 58.8125C273.074 59.2481 273.439 59.8371 273.58 60.5795ZM275.463 67V58.2727H277.52V67H275.463ZM276.497 57.0341C276.171 57.0341 275.891 56.9261 275.656 56.7102C275.421 56.4905 275.304 56.2273 275.304 55.9205C275.304 55.6098 275.421 55.3466 275.656 55.1307C275.891 54.911 276.171 54.8011 276.497 54.8011C276.827 54.8011 277.107 54.911 277.338 55.1307C277.573 55.3466 277.69 55.6098 277.69 55.9205C277.69 56.2273 277.573 56.4905 277.338 56.7102C277.107 56.9261 276.827 57.0341 276.497 57.0341ZM282.874 67.1534C282.188 67.1534 281.574 66.9773 281.033 66.625C280.491 66.2727 280.063 65.7614 279.749 65.0909C279.434 64.4205 279.277 63.6061 279.277 62.6477C279.277 61.678 279.436 60.8598 279.754 60.1932C280.076 59.5227 280.51 59.017 281.055 58.6761C281.601 58.3314 282.209 58.1591 282.879 58.1591C283.391 58.1591 283.811 58.2462 284.141 58.4205C284.47 58.5909 284.732 58.7973 284.925 59.0398C285.118 59.2784 285.268 59.5038 285.374 59.7159H285.459V55.3636H287.521V67H285.499V65.625H285.374C285.268 65.8371 285.114 66.0625 284.913 66.3011C284.713 66.536 284.447 66.7367 284.118 66.9034C283.788 67.0701 283.374 67.1534 282.874 67.1534ZM283.447 65.4659C283.883 65.4659 284.254 65.3485 284.561 65.1136C284.868 64.875 285.101 64.5436 285.26 64.1193C285.419 63.6951 285.499 63.2008 285.499 62.6364C285.499 62.072 285.419 61.5814 285.26 61.1648C285.105 60.7481 284.874 60.4242 284.567 60.1932C284.264 59.9621 283.891 59.8466 283.447 59.8466C282.989 59.8466 282.607 59.9659 282.3 60.2045C281.993 60.4432 281.762 60.7727 281.607 61.1932C281.451 61.6136 281.374 62.0947 281.374 62.6364C281.374 63.1818 281.451 63.6686 281.607 64.0966C281.766 64.5208 281.999 64.8561 282.305 65.1023C282.616 65.3447 282.997 65.4659 283.447 65.4659ZM293.577 67.1705C292.702 67.1705 291.946 66.9886 291.31 66.625C290.677 66.2576 290.19 65.7386 289.849 65.0682C289.509 64.3939 289.338 63.6004 289.338 62.6875C289.338 61.7898 289.509 61.0019 289.849 60.3239C290.194 59.642 290.675 59.1117 291.293 58.733C291.91 58.3504 292.635 58.1591 293.469 58.1591C294.007 58.1591 294.514 58.2462 294.991 58.4205C295.473 58.5909 295.897 58.8561 296.264 59.2159C296.635 59.5758 296.927 60.0341 297.139 60.5909C297.351 61.1439 297.457 61.803 297.457 62.5682V63.1989H290.304V61.8125H295.486C295.482 61.4186 295.397 61.0682 295.23 60.7614C295.063 60.4508 294.83 60.2064 294.531 60.0284C294.236 59.8504 293.891 59.7614 293.497 59.7614C293.077 59.7614 292.707 59.8636 292.389 60.0682C292.071 60.2689 291.823 60.5341 291.645 60.8636C291.471 61.1894 291.382 61.5473 291.378 61.9375V63.1477C291.378 63.6553 291.471 64.0909 291.656 64.4545C291.842 64.8144 292.101 65.0909 292.435 65.2841C292.768 65.4735 293.158 65.5682 293.605 65.5682C293.904 65.5682 294.175 65.5265 294.418 65.4432C294.66 65.3561 294.87 65.2292 295.048 65.0625C295.226 64.8958 295.361 64.6894 295.452 64.4432L297.372 64.6591C297.251 65.1667 297.02 65.6098 296.679 65.9886C296.342 66.3636 295.91 66.6553 295.384 66.8636C294.857 67.0682 294.255 67.1705 293.577 67.1705ZM300.464 67.125C300.12 67.125 299.824 67.0038 299.578 66.7614C299.332 66.5189 299.211 66.2235 299.214 65.875C299.211 65.5341 299.332 65.2424 299.578 65C299.824 64.7576 300.12 64.6364 300.464 64.6364C300.798 64.6364 301.088 64.7576 301.334 65C301.584 65.2424 301.711 65.5341 301.714 65.875C301.711 66.1061 301.65 66.3163 301.533 66.5057C301.419 66.6951 301.268 66.8466 301.078 66.9602C300.893 67.0701 300.688 67.125 300.464 67.125ZM303.838 70.2727V58.2727H305.861V59.7159H305.98C306.086 59.5038 306.236 59.2784 306.429 59.0398C306.622 58.7973 306.884 58.5909 307.213 58.4205C307.543 58.2462 307.963 58.1591 308.474 58.1591C309.149 58.1591 309.757 58.3314 310.298 58.6761C310.844 59.017 311.276 59.5227 311.594 60.1932C311.916 60.8598 312.077 61.678 312.077 62.6477C312.077 63.6061 311.92 64.4205 311.605 65.0909C311.291 65.7614 310.863 66.2727 310.321 66.625C309.779 66.9773 309.166 67.1534 308.48 67.1534C307.98 67.1534 307.565 67.0701 307.236 66.9034C306.906 66.7367 306.641 66.536 306.44 66.3011C306.243 66.0625 306.09 65.8371 305.98 65.625H305.895V70.2727H303.838ZM305.855 62.6364C305.855 63.2008 305.935 63.6951 306.094 64.1193C306.257 64.5436 306.49 64.875 306.793 65.1136C307.099 65.3485 307.471 65.4659 307.906 65.4659C308.361 65.4659 308.741 65.3447 309.048 65.1023C309.355 64.8561 309.586 64.5208 309.741 64.0966C309.901 63.6686 309.98 63.1818 309.98 62.6364C309.98 62.0947 309.902 61.6136 309.747 61.1932C309.592 60.7727 309.361 60.4432 309.054 60.2045C308.747 59.9659 308.365 59.8466 307.906 59.8466C307.467 59.8466 307.094 59.9621 306.787 60.1932C306.48 60.4242 306.247 60.7481 306.088 61.1648C305.933 61.5814 305.855 62.072 305.855 62.6364ZM317.077 67.1534C316.391 67.1534 315.777 66.9773 315.236 66.625C314.694 66.2727 314.266 65.7614 313.952 65.0909C313.637 64.4205 313.48 63.6061 313.48 62.6477C313.48 61.678 313.639 60.8598 313.957 60.1932C314.279 59.5227 314.713 59.017 315.259 58.6761C315.804 58.3314 316.412 58.1591 317.082 58.1591C317.594 58.1591 318.014 58.2462 318.344 58.4205C318.673 58.5909 318.935 58.7973 319.128 59.0398C319.321 59.2784 319.471 59.5038 319.577 59.7159H319.662V55.3636H321.724V67H319.702V65.625H319.577C319.471 65.8371 319.317 66.0625 319.116 66.3011C318.916 66.536 318.651 66.7367 318.321 66.9034C317.991 67.0701 317.577 67.1534 317.077 67.1534ZM317.651 65.4659C318.086 65.4659 318.457 65.3485 318.764 65.1136C319.071 64.875 319.304 64.5436 319.463 64.1193C319.622 63.6951 319.702 63.2008 319.702 62.6364C319.702 62.072 319.622 61.5814 319.463 61.1648C319.308 60.7481 319.077 60.4242 318.77 60.1932C318.467 59.9621 318.094 59.8466 317.651 59.8466C317.192 59.8466 316.81 59.9659 316.503 60.2045C316.196 60.4432 315.965 60.7727 315.81 61.1932C315.654 61.6136 315.577 62.0947 315.577 62.6364C315.577 63.1818 315.654 63.6686 315.81 64.0966C315.969 64.5208 316.202 64.8561 316.509 65.1023C316.819 65.3447 317.2 65.4659 317.651 65.4659ZM328.337 58.2727V59.8636H323.178V58.2727H328.337ZM324.467 67V57.4489C324.467 56.8617 324.589 56.3731 324.831 55.983C325.077 55.5928 325.407 55.3011 325.82 55.108C326.232 54.9148 326.691 54.8182 327.195 54.8182C327.551 54.8182 327.867 54.8466 328.143 54.9034C328.42 54.9602 328.625 55.0114 328.757 55.0568L328.348 56.6477C328.261 56.6212 328.151 56.5947 328.018 56.5682C327.886 56.5379 327.738 56.5227 327.575 56.5227C327.193 56.5227 326.922 56.6155 326.763 56.8011C326.607 56.983 326.53 57.2443 326.53 57.5852V67H324.467Z" fill="white"/>
<path d="M428 177L411.5 196.919V157.081L428 177Z" fill="#D9D9D9"/>
</svg>
